<svg width="400" height="400" viewBox="0 0 400 400" fill="none" xmlns="http://www.w3.org/2000/svg">
<g clip-path="url(#clip0_706_101)">
<path d="M330.227 133.194C332.695 133.194 335.032 132.145 337.237 131.18C338.457 130.646 339.542 130.005 340.752 129.412C342.643 128.485 344.642 128.335 346.548 127.295C348.43 126.269 351.07 125.7 353.085 124.849C354.674 124.178 356.647 123.54 358.327 123.204C361.688 122.532 364.614 120.854 367.947 119.854C369.576 119.365 371.357 118.827 372.963 118.209C374.289 117.699 376.582 116.544 377.958 116.544C380.678 116.544 383.45 114.603 386.098 114.324C388.573 114.064 391.015 111.478 393.416 110.706C394.47 110.367 397.819 109.383 398.308 108.404" stroke="black" stroke-width="3" stroke-linecap="round"/>
<path d="M330.967 134.675C331.123 136.078 332.447 137.375 332.447 138.93C332.447 140.213 333.508 141.542 333.845 142.815C334.665 145.912 334.552 149.329 335.859 152.27C337.271 155.447 338.498 158.834 339.559 162.137C340.708 165.711 342.055 169.214 342.848 172.785C343.264 174.655 344.308 176.784 344.945 178.623C345.488 180.191 346.651 181.767 346.898 183.372C347.187 185.248 348.357 187.228 348.357 188.983C348.357 190.711 349.257 192.532 350.207 193.958C354.728 200.738 356.876 209.071 359.643 216.816C360.583 219.449 362.06 221.827 363.199 224.381C363.987 226.148 365.751 228.027 366.097 229.931C366.395 231.57 367.608 233.644 368.255 235.234C368.97 236.989 369.708 239.109 370.722 240.702C371.842 242.462 372.039 244.689 373.312 246.499C374.377 248.012 376.09 249.945 376.498 251.782C376.897 253.574 378.498 254.878 378.698 256.777C378.757 257.34 379.467 258.052 379.726 258.627C380.143 259.555 380.385 260.639 380.918 261.505C382.838 264.625 385.539 267.609 386.756 271.125C387.191 272.383 388.027 274.031 388.852 275.092C389.919 276.463 389.72 279.183 391.093 280.252C391.809 280.808 392.344 282.875 392.676 283.869C393.179 285.378 393.776 286.657 394.793 287.878C396.484 289.907 397.544 292.262 399.048 294.517" stroke="black" stroke-width="3" stroke-linecap="round"/>
<path d="M330.847 135.615C329.631 136.414 328.315 137.078 327.121 137.905C325.873 138.769 324.259 139.203 322.837 139.694C320.648 140.448 318.315 140.894 316.046 141.334C315.392 141.461 314.726 141.5 314.075 141.625C313.252 141.782 312.473 142.162 311.665 142.383C310.738 142.635 309.849 142.928 308.948 143.26C307.952 143.626 306.936 143.769 305.917 144.035C304.167 144.491 302.439 144.89 300.784 145.647C299.389 146.284 297.872 146.616 296.494 147.305" stroke="black" stroke-width="3" stroke-linecap="round"/>
<path d="M297.457 147.876C298.24 147.876 298.516 148.398 298.965 149.017C299.926 150.341 301.193 151.737 301.859 153.236C302.718 155.167 303.744 157.282 304.794 159.105C305.419 160.191 305.766 161.609 306.261 162.774C306.742 163.903 307.062 165.117 307.545 166.218C308.847 169.182 309.655 172.356 310.959 175.307C311.981 177.621 312.573 180.226 313.343 182.654C313.897 184.399 314.602 186.174 315.259 187.881C316.01 189.834 316.52 191.884 317.277 193.822C318.314 196.48 319.931 198.936 320.853 201.617C321.961 204.841 323.687 207.95 324.562 211.257C325.206 213.689 326.481 215.913 327.314 218.288C328.094 220.513 329.061 222.752 329.922 224.952C330.617 226.727 331.391 228.44 331.94 230.271C332.692 232.778 333.393 235.301 334.131 237.822C334.741 239.908 335.631 241.916 335.975 244.068C336.164 245.247 336.428 246.495 336.79 247.635C337.091 248.579 337.568 249.526 337.636 250.508C337.76 252.307 338.107 254.251 338.828 255.899C339.003 256.299 339.335 257.568 339.643 257.753C339.792 257.842 340.322 258.366 340.377 258.477" stroke="black" stroke-width="3" stroke-linecap="round"/>
<path d="M340.744 259.21C342.18 259.21 343.713 257.853 344.932 257.203C346.147 256.555 347.391 255.994 348.631 255.359C349.913 254.701 351.068 253.929 352.482 253.524C354.265 253.015 355.727 251.702 357.435 251.038C358.891 250.472 360.26 249.471 361.653 248.756C362.722 248.207 364.16 248.199 365.342 247.93C366.721 247.617 368.124 247.288 369.54 247.288C370.098 247.288 371.937 247.093 372.292 246.738" stroke="black" stroke-width="3" stroke-linecap="round"/>
<path d="M0.436523 120.804C4.34805 122.288 8.17063 124.122 12.1416 125.462C15.3586 126.547 18.6022 127.633 21.8169 128.774C23.1725 129.255 24.4062 130.022 25.7891 130.442C28.4224 131.244 31.1561 131.861 33.7336 132.808C35.8811 133.597 38.1473 134.078 40.3332 134.751C42.2365 135.336 44.0345 136.264 45.9492 136.818C52.071 138.59 57.4614 142.381 63.6437 143.99C66.2811 144.677 68.6992 146.019 71.2769 146.792C72.2305 147.078 73.6714 147.701 74.6265 147.701" stroke="black" stroke-width="3" stroke-linecap="round"/>
<path d="M28.7858 253.992C29.3017 253.992 29.7046 253.77 30.2601 253.811C31.5026 253.903 32.3064 254.591 33.3679 255.137C34.3308 255.632 35.3638 255.856 36.3484 256.293C38.137 257.088 39.9684 257.897 41.8427 258.468C43.8781 259.087 44.9975 260.652 46.7324 261.809C48.309 262.86 49.8919 263.891 51.6964 264.492" stroke="black" stroke-width="3" stroke-linecap="round"/>
<path d="M74.798 150.321C76.4818 150.321 77.8199 151.152 79.3907 151.466C80.0872 151.606 80.7298 151.635 81.4378 151.657C82.6533 151.696 83.8206 152.366 85.0229 152.569C85.6623 152.678 86.3501 152.612 86.9958 152.612C87.5792 152.612 88.0157 152.925 88.5656 153.1C89.6662 153.45 90.8307 153.431 91.9385 153.8C93.0076 154.156 93.9142 154.697 94.8554 155.285C95.2616 155.539 95.6828 155.459 96.1388 155.476C96.7374 155.497 97.3826 155.8 97.9844 155.9C99.3362 156.125 100.71 156.048 102.079 156.048C103.115 156.048 103.804 156.621 104.773 156.621" stroke="black" stroke-width="3" stroke-linecap="round"/>
<path d="M104.2 157.576C104.396 161.11 104.635 164.545 103.807 167.992C103.357 169.87 102.574 171.619 101.994 173.444C101.221 175.872 100.953 178.414 100.339 180.868C100.088 181.874 99.8486 182.866 99.8087 183.923C99.7561 185.318 99.1323 186.54 98.8965 187.89C98.404 190.711 97.2429 193.573 96.1812 196.227C95.2756 198.491 94.4117 200.966 92.6492 202.729C91.3889 203.989 90.2659 205.37 89.3398 206.897C88.6408 208.051 88.8807 209.399 88.3534 210.546C87.9121 211.507 87.6638 212.469 87.1655 213.41C86.5148 214.639 85.7101 215.814 84.9168 216.953C83.0304 219.661 81.3412 222.428 80.0377 225.47C78.8494 228.243 77.6191 230.999 76.4208 233.764C75.6921 235.446 74.6573 237.273 73.5464 238.728C72.4407 240.177 71.5897 241.741 70.2158 242.96C68.843 244.179 67.3937 245.146 66.2701 246.588C65.3301 247.794 63.9635 249.036 63.3002 250.406C61.8442 253.416 59.3292 256.147 57.2437 258.754C56.285 259.952 55.3506 261.029 54.2632 262.116C53.7233 262.656 53.233 263.076 53.0222 263.813C52.946 264.08 52.4906 264.572 52.2692 264.683" stroke="black" stroke-width="3" stroke-linecap="round"/>
<circle cx="52" cy="243" r="7.5" stroke="black" stroke-width="3"/>
<circle cx="350" cy="234" r="7.5" stroke="black" stroke-width="3"/>
<path d="M110.274 300.228C111.441 302.139 112.488 304.064 113.986 305.737C114.553 306.37 114.998 307.108 115.585 307.716C116.194 308.347 116.589 309.147 117.184 309.787C117.81 310.461 118.385 311.182 119.04 311.847C120.204 313.03 121.543 314.126 123.079 314.77C124.071 315.187 125.021 315.715 126.024 316.106C127.265 316.591 128.53 317.016 129.768 317.512C131.486 318.199 133.246 318.716 135.015 319.25C136.465 319.687 137.901 320.347 139.387 320.645C140.585 320.884 141.748 321.211 142.965 321.374C144.206 321.54 145.569 321.542 146.774 321.878C148.623 322.395 150.492 322.919 152.428 322.919C152.904 322.919 153.447 322.822 153.871 322.822C154.475 322.822 154.532 322.885 154.767 323.402C155.042 324.009 154.934 324.616 155.126 325.231C155.288 325.748 154.88 326.208 154.649 326.637C154.444 327.016 154.116 327.247 153.651 327.264C152.409 327.31 151.016 327.219 149.821 326.878C149.295 326.728 148.722 326.612 148.222 326.395C147.917 326.263 147.561 326.303 147.256 326.181C146.322 325.807 145.333 325.375 144.36 325.086C143.965 324.969 143.557 325.027 143.153 324.904C142.602 324.736 142.051 324.561 141.468 324.561C140.11 324.561 138.604 324.192 137.311 323.81C135.934 323.403 134.538 323.248 133.186 322.721C131.311 321.989 129.362 321.503 127.558 320.602C126.796 320.22 126.024 319.859 125.391 319.293C125.171 319.096 124.867 319.049 124.64 318.842C124.341 318.569 123.989 318.394 123.621 318.231C122.536 317.748 121.735 317.096 120.901 316.262C120.319 315.68 119.866 314.894 119.372 314.229C118.937 313.642 118.833 312.879 118.246 312.373C117.069 311.357 116.252 310.294 115.563 308.918C115.327 308.444 115.098 307.955 114.861 307.48C114.723 307.205 114.569 306.439 114.281 306.311C114.102 306.231 113.816 305.916 113.868 306.343C113.9 306.6 113.999 306.834 114.04 307.083C114.062 307.213 114.212 307.243 114.233 307.373C114.299 307.768 114.765 308.233 114.952 308.58C115.201 309.043 115.487 309.516 115.66 310.002C115.778 310.331 115.838 310.687 115.95 311.021C116.03 311.262 116.252 311.416 116.261 311.643C116.28 312.134 116.838 312.581 117.033 313.022C117.325 313.677 117.99 314.151 118.385 314.733C119.204 315.94 120.567 317.131 121.813 317.898C122.503 318.322 123.132 318.909 123.792 319.368C124.266 319.697 124.754 319.9 125.198 320.264C125.842 320.791 126.667 321.145 127.387 321.567C127.675 321.737 128.025 321.83 128.331 321.975C128.613 322.108 129.068 322.165 129.296 322.34C129.535 322.521 129.97 322.71 130.257 322.817C130.47 322.897 130.616 323.046 130.798 323.112C131.076 323.213 131.358 323.299 131.635 323.402C131.987 323.533 132.318 323.758 132.676 323.863C133.364 324.065 133.895 324.633 134.645 324.748C135.347 324.856 136.019 325.248 136.731 325.328C137.049 325.363 137.378 325.324 137.697 325.333C138.022 325.342 138.432 325.56 138.759 325.644C139.377 325.803 140.065 326.127 140.69 326.197C142.081 326.351 143.548 326.395 144.939 326.395C146.093 326.395 147.156 326.781 148.319 326.781C148.689 326.781 149.059 326.781 149.429 326.781C149.649 326.781 150.582 326.8 150.727 326.631C151.07 326.232 151.771 325.966 152.267 325.773C152.434 325.708 152.837 325.695 152.932 325.526C152.978 325.445 152.211 325.255 152.149 325.236C151.377 325.001 150.563 325.186 149.815 324.898C148.241 324.293 146.566 323.991 144.918 323.616C144.149 323.442 143.312 323.383 142.568 323.112C141.703 322.798 140.741 322.34 139.821 322.34C138.973 322.34 138.136 322.314 137.3 322.484C136.619 322.624 135.894 322.726 135.197 322.726C134.436 322.726 133.721 322.792 133.009 322.533C132.456 322.332 131.952 322.149 131.378 322.002C130.723 321.833 130.999 321.825 130.756 321.31C130.313 320.376 129.279 319.986 128.384 319.636C127.387 319.246 126.311 318.785 125.257 318.585C125.017 318.539 124.304 318.391 124.549 318.391C124.984 318.391 125.502 318.561 125.917 318.676C128.013 319.254 130.007 320.188 132.075 320.848C133.329 321.249 134.655 321.374 135.862 321.857" stroke="black" stroke-width="3" stroke-linecap="round"/>
<path d="M112.763 317.203C112.992 317.707 113.241 318.217 113.438 318.733C113.574 319.092 113.736 319.483 113.978 319.788C114.326 320.228 114.76 320.606 115.124 321.037C115.461 321.438 115.863 321.834 116.26 322.18C116.58 322.458 116.82 322.8 117.147 323.076C117.467 323.346 117.788 323.651 118.058 323.972C118.374 324.347 118.799 324.558 119.219 324.79C120.168 325.311 121.001 325.979 121.992 326.444C122.652 326.754 123.287 327.113 123.955 327.409C124.645 327.714 125.351 327.978 126.038 328.286C127.065 328.747 128.189 329.18 129.281 329.457C130.803 329.842 132.271 330.28 133.836 330.437C134.792 330.533 135.803 330.626 136.746 330.815C136.83 330.832 137.393 330.888 137.42 330.94C137.494 331.081 137.432 331.405 137.432 331.564C137.432 331.846 137.429 332.475 137.027 332.544C136.801 332.583 136.601 332.713 136.368 332.713C136.134 332.713 135.9 332.713 135.665 332.713C135.389 332.713 135.112 332.713 134.835 332.713C134.411 332.713 134.006 332.825 133.583 332.825C133.003 332.825 132.42 332.769 131.844 332.769C131.592 332.769 131.364 332.657 131.111 332.657C130.736 332.657 130.336 332.538 129.971 332.457C129.458 332.343 128.941 332.239 128.441 332.107C127.726 331.918 126.991 331.583 126.387 331.152C126.282 331.076 126.177 331.094 126.069 331.027C125.925 330.939 125.73 330.813 125.579 330.752C125.306 330.643 125.053 330.421 124.761 330.356C124.187 330.228 123.806 329.812 123.315 329.485C123.05 329.308 122.743 329.208 122.482 329.029C122.194 328.831 121.937 328.619 121.67 328.411C120.992 327.884 120.305 327.395 119.653 326.844C119.107 326.381 118.646 325.859 118.146 325.339C117.892 325.075 117.69 324.772 117.403 324.537C117.111 324.298 116.93 323.79 116.728 323.472C116.606 323.28 116.387 323.138 116.26 322.935C116.107 322.69 116.083 322.036 115.798 322.036" stroke="black" stroke-width="3" stroke-linecap="round"/>
<path d="M242.322 126.15C241.376 124.968 240.569 123.657 239.59 122.5C239.047 121.859 238.991 121.007 238.214 120.57C236.88 119.82 235.497 119.147 234.056 118.635C233.237 118.345 232.34 117.823 231.59 117.386C230.998 117.04 230.348 116.76 229.734 116.453C228.213 115.693 226.805 115.381 225.119 115.176C223.173 114.939 221.085 114.907 219.217 114.3C218.296 114 217.281 113.887 216.326 113.731C215.826 113.649 215.506 113.686 215.571 113.125C215.722 111.833 216.125 110.43 217.436 109.936C218.206 109.646 219.085 109.383 219.916 109.367C220.673 109.353 221.412 109.523 222.163 109.535C223.974 109.564 225.916 110.41 227.552 111.092C228.406 111.448 229.148 112.011 229.986 112.384C230.801 112.746 231.643 112.992 232.452 113.386C233.681 113.984 234.624 115.019 235.604 115.95C236.442 116.747 237.337 117.485 238.051 118.397C238.782 119.331 239.933 120.098 240.392 121.218C240.557 121.624 240.816 121.991 240.998 122.374C241.05 122.485 241.342 123.119 241.398 123.129C241.643 123.175 241.814 124.499 241.921 124.724C242.025 124.944 242.144 125.218 242.154 125.46C242.167 125.793 241.818 125.441 241.818 125.227" stroke="black" stroke-width="3" stroke-linecap="round"/>
<path d="M217.483 112.304C216.594 112.205 219.269 112.22 220.163 112.22C220.581 112.22 220.999 112.22 221.417 112.22C221.843 112.22 221.563 112.142 221.567 112.141C221.92 112.087 222.516 112.293 222.853 112.407C223.452 112.609 224.14 112.687 224.765 112.808C225.428 112.936 226.14 113.008 226.779 113.227C227.314 113.411 227.856 113.64 228.41 113.749C229.111 113.888 229.661 114.295 230.28 114.57C230.554 114.692 230.906 114.76 231.156 114.91C231.401 115.057 231.61 115.256 231.869 115.367C232.176 115.498 232.449 115.665 232.755 115.81C233.114 115.98 233.826 116.124 234.014 116.5" stroke="black" stroke-width="3" stroke-linecap="round"/>
<path d="M203.217 120.528C203.991 120.528 203.55 119.175 203.739 118.663C203.894 118.246 204.455 118.067 204.821 117.885C205.378 117.606 206.034 117.87 206.616 117.717C207.523 117.478 208.536 117.591 209.469 117.591C211.136 117.591 212.851 117.47 214.508 117.656C215.809 117.802 217.22 118.077 218.49 118.411C219.741 118.741 220.912 119.324 222.149 119.684C222.647 119.829 223.164 119.937 223.669 120.057C223.81 120.091 224.085 120.057 224.177 120.192C224.312 120.388 224.97 120.629 225.203 120.742C226.537 121.391 228.032 121.645 229.436 122.08C230.081 122.28 230.679 122.46 231.31 122.71C231.695 122.862 232.001 123.084 232.382 123.255C233.604 123.803 234.51 124.739 235.608 125.479C236.293 125.939 236.781 126.483 237.352 127.055C238.045 127.748 238.846 128.368 239.622 128.989C239.895 129.207 240.141 129.424 240.392 129.675C240.602 129.885 240.623 129.902 240.261 129.833C239.607 129.709 239.44 128.844 239.03 128.435C238.858 128.262 238.452 128.142 238.228 128.062C237.526 127.811 236.889 127.33 236.172 127.115C235.128 126.802 234.306 126.119 233.343 125.628C232.489 125.193 231.469 125.01 230.536 124.789C229.917 124.642 229.282 124.554 228.671 124.383C228.187 124.248 227.703 124.219 227.207 124.155C226.974 124.125 226.777 124.001 226.55 123.973C225.03 123.783 223.422 123.756 221.939 123.339C221.493 123.214 220.914 123.259 220.504 123.064C220.032 122.841 219.329 122.721 218.807 122.71C217.595 122.684 216.391 122.498 215.18 122.458C213.992 122.418 212.803 122.29 211.613 122.29C210.867 122.29 210.069 122.372 209.338 122.206C208.417 121.997 207.42 122.02 206.48 121.936C205.918 121.885 205.356 121.787 204.793 121.787C204.602 121.787 203.915 121.724 203.804 121.917C203.65 122.187 204.457 121.469 204.555 121.372C205.087 120.84 205.721 120.356 206.438 120.076C206.818 119.927 207.151 119.94 207.562 119.94C208.68 119.94 209.876 119.924 210.965 120.192C212.623 120.601 214.21 120.857 215.907 121.013C217.643 121.172 219.349 121.426 221.082 121.619C221.758 121.694 222.604 121.857 223.194 122.211C223.56 122.431 224.815 122.751 224.42 122.588C223.564 122.236 222.659 122.018 221.804 121.661C221.411 121.496 221.117 121.259 220.755 121.069C220.372 120.866 219.862 120.947 219.445 120.947C218.796 120.947 218.041 121.062 217.413 120.906C217.184 120.848 216.98 120.725 216.755 120.658C216.218 120.499 215.637 120.531 215.086 120.444C214.585 120.364 214.051 120.31 213.623 120.024" stroke="black" stroke-width="3" stroke-linecap="round"/>
<path d="M207.411 117.932C207.35 117.809 207.168 117.741 207.058 117.674C206.924 117.593 206.822 117.496 206.709 117.39C206.604 117.29 206.408 117.332 206.279 117.334C205.995 117.341 205.724 117.383 205.444 117.412C204.758 117.484 203.991 117.585 203.383 117.932C202.924 118.194 202.577 118.585 202.278 119.013C201.958 119.47 201.975 120.37 202.12 120.869C202.229 121.244 202.521 121.832 202.864 122.039C203.351 122.333 203.809 122.423 204.378 122.445C204.802 122.462 205.159 122.402 205.566 122.292C205.92 122.197 206.319 122.218 206.683 122.177C207.485 122.085 208.325 122.234 209.12 122.319C209.795 122.391 210.469 122.45 211.143 122.527C211.46 122.564 211.774 122.61 212.091 122.65C212.54 122.706 212.961 122.86 213.405 122.927C214.989 123.165 216.58 123.246 218.176 123.347C219.018 123.4 219.855 123.424 220.687 123.566C221.057 123.63 221.431 123.636 221.797 123.726C222.235 123.834 222.671 123.942 223.118 124.006C224.019 124.135 224.953 124.257 225.843 124.446C226.515 124.588 227.326 124.668 227.912 125.045C228.486 125.414 229.226 125.349 229.868 125.502C230.746 125.712 231.667 125.973 232.503 126.315C233.853 126.868 235.187 127.498 236.448 128.222C237.334 128.731 238.342 129.049 239.263 129.483C239.423 129.558 239.608 129.621 239.761 129.703C239.922 129.79 239.729 129.654 239.683 129.614C239.207 129.2 238.876 128.606 238.333 128.273C237.973 128.052 237.701 127.663 237.325 127.467C236.853 127.221 236.431 126.876 235.935 126.653C234.009 125.786 232.029 125.045 230.11 124.159C229.375 123.82 228.613 123.552 227.881 123.207C227.157 122.866 226.458 122.486 225.72 122.172C225.18 121.942 224.695 121.69 224.209 121.366C223.946 121.192 223.674 121.031 223.378 120.92C222.102 120.439 220.671 120.259 219.333 120.032C216.772 119.597 214.152 119.396 211.56 119.27C210.9 119.238 210.24 119.275 209.584 119.171C208.921 119.065 208.264 118.921 207.602 118.82C207.309 118.775 207.025 118.727 206.738 118.653C206.579 118.612 206.352 118.596 206.219 118.489C206.007 118.32 206.148 118.269 206.332 118.132" stroke="black" stroke-width="3" stroke-linecap="round"/>
<path d="M330.355 229.493C327.217 229.493 323.923 229.161 320.815 229.592C318.281 229.944 315.579 230.188 313.164 231.083C309.433 232.465 305.294 233.813 302.046 236.095C299.786 237.684 297.286 238.716 294.892 240.037C293.351 240.887 292.099 241.701 290.409 242.311C288.518 242.994 286.562 243.562 284.602 244C283.221 244.309 281.822 244.458 280.472 244.795" stroke="black" stroke-width="3" stroke-linecap="round"/>
<path d="M280.066 245.541C281.136 246.674 281.918 248.088 283.022 249.191C283.62 249.789 284.312 250.486 284.988 250.977C285.719 251.509 286.079 252.39 286.517 253.149C287.356 254.602 287.3 256.281 287.873 257.807C288.222 258.738 288.257 259.664 288.367 260.641C288.445 261.333 288.551 262.034 288.502 262.735C288.386 264.426 287.829 266.452 287.031 267.953C286.879 268.238 286.945 268.548 286.774 268.814C286.524 269.203 286.391 269.605 286.08 269.951C285.336 270.778 284.789 271.597 283.883 272.283C280.213 275.06 274.774 274.802 270.415 274.802C268.286 274.802 266.75 274.141 265.005 273.041C263.785 272.272 262.755 271.258 261.587 270.433C260.761 269.849 259.797 269.388 258.901 268.91C256.6 267.682 254.176 266.224 251.731 265.318C250.675 264.927 249.851 264.179 249.013 263.468C248.537 263.064 248.031 262.77 247.516 262.427C247.071 262.131 246.813 261.651 246.346 261.386C245.46 260.883 244.68 260.176 243.892 259.535C242.702 258.569 241.423 257.725 240.178 256.83C238.144 255.368 235.937 254.179 233.708 253.014C233.157 252.726 232.724 252.347 232.211 251.999C231.397 251.447 230.552 251.049 229.718 250.566C228.615 249.928 227.781 248.714 226.608 248.176C225.207 247.533 223.863 246.497 222.354 246.12" stroke="black" stroke-width="3" stroke-linecap="round"/>
<path d="M257.86 270.291C257.86 271.169 257.86 272.047 257.86 272.926C257.86 273.82 257.394 274.435 257.102 275.264C256.749 276.267 256.407 277.116 255.83 278.014C255.375 278.722 254.877 279.41 254.442 280.122C252.737 282.912 249.957 283.962 246.924 284.838C243.522 285.821 239.793 285.442 236.291 285.442C234.419 285.442 232.439 284.979 230.649 284.459C228.721 283.899 227.099 282.789 225.374 281.812C222.638 280.261 220.039 278.293 217.574 276.331C216.084 275.145 214.419 274.21 213.012 272.926C211.403 271.457 208.961 271.028 207.158 269.893C205.798 269.037 204.117 268.86 202.744 268.036C201.347 267.198 199.658 266.74 198.067 266.475" stroke="black" stroke-width="3" stroke-linecap="round"/>
<path d="M241.669 261.964C241.669 263.551 241.82 265.225 241.579 266.796C241.261 268.859 239.992 270.349 238.572 271.769C237.936 272.405 237.257 273.003 236.638 273.645C235.865 274.446 234.921 274.956 234.035 275.611C233.338 276.127 232.706 276.476 231.902 276.768C231.328 276.977 231.013 277.815 230.681 278.271" stroke="black" stroke-width="3" stroke-linecap="round"/>
<path d="M282.379 258.032C282.379 259.986 281.643 261.933 280.773 263.673C280.212 264.795 279.555 265.909 278.678 266.822C277.302 268.253 275.962 269.901 273.936 270.407" stroke="black" stroke-width="3" stroke-linecap="round"/>
<path d="M260.289 234.554C260.289 236.161 260.272 237.937 259.704 239.463C259.176 240.883 258.243 242.068 257.796 243.53C257.154 245.628 256.536 247.942 254.93 249.512C254.029 250.394 252.676 251.128 251.551 251.671C250.441 252.206 249.364 252.797 248.261 253.348C247.683 253.637 247.093 253.813 246.526 254.125C245.795 254.527 245.22 255.293 244.444 255.603" stroke="black" stroke-width="3" stroke-linecap="round"/>
<path d="M231.954 216.859C233.098 217.467 232.135 219.663 231.799 220.534C231.307 221.81 230.732 223.093 230.103 224.306C229.545 225.382 228.935 226.422 228.368 227.493C227.818 228.532 227.3 229.866 226.518 230.737C225.914 231.41 225.433 232.22 224.873 232.935C224.276 233.697 223.25 234.244 222.412 234.676C220.772 235.522 219.085 236.272 217.265 236.636" stroke="black" stroke-width="3" stroke-linecap="round"/>
<path d="M207.897 241.262C208.103 242.55 208.043 243.897 207.955 245.194C207.894 246.098 207.916 247.146 207.602 247.996C206.865 249.988 205.575 251.455 204.023 252.892C202.435 254.362 200.453 255.39 198.51 256.31C197.152 256.953 195.682 257.348 194.289 257.916C193.371 258.29 192.272 258.957 191.243 258.957" stroke="black" stroke-width="3" stroke-linecap="round"/>
<path d="M211.714 281.741C211.714 282.928 211.544 284.205 210.789 285.185C210.08 286.105 209.452 287.032 208.54 287.762C207.413 288.663 206.369 289.279 205.077 289.946C204.6 290.192 204.142 290.4 203.644 290.595C203.271 290.741 202.779 290.782 202.462 290.994" stroke="black" stroke-width="3" stroke-linecap="round"/>
<path d="M169.269 278.965C169.718 278.856 170.362 278.634 170.798 278.618C171.828 278.582 172.656 277.681 173.471 277.192C174.826 276.379 176.241 275.427 177.48 274.429C178.101 273.929 178.569 273.155 179.125 272.579C179.64 272.045 179.892 271.27 180.14 270.587C180.632 269.235 181.13 267.885 181.412 266.475" stroke="black" stroke-width="3" stroke-linecap="round"/>
<path d="M231.028 286.136C231.377 286.201 231.396 286.962 231.504 287.248C231.75 287.899 231.838 288.341 231.838 289.027C231.838 290.268 231.71 291.504 231.831 292.722C231.964 294.046 231.897 295.538 231.549 296.815C231.172 298.195 230.543 299.941 229.422 300.876C228.465 301.673 227.643 302.249 226.428 302.649C224.621 303.244 222.673 303.801 220.761 303.831C218.789 303.862 216.565 304.121 214.631 303.716C212.713 303.313 210.812 302.862 208.964 302.212C207.808 301.805 206.768 301.347 205.758 300.651C204.912 300.068 203.982 299.691 203.149 299.096C202.407 298.566 201.454 298.288 200.65 297.862C199.703 297.361 198.767 296.768 197.778 296.365C196.928 296.019 196.201 295.236 195.413 294.752C194.558 294.228 193.67 293.591 192.933 292.908C191.689 291.756 190.237 290.94 188.866 289.953C186.254 288.072 183.294 286.83 180.05 286.83C177.521 286.83 175.037 286.599 172.507 286.599" stroke="black" stroke-width="3" stroke-linecap="round"/>
<path d="M205.237 301.865C205.635 303.208 205.469 304.733 205.469 306.119C205.469 306.941 205.122 307.443 204.8 308.194C204.549 308.781 204.516 309.245 204.074 309.743C203.153 310.779 202.058 311.355 200.785 311.921C199.642 312.429 198.197 313.364 196.884 313.174C194.766 312.866 193.06 311.874 191.102 311.118C189.194 310.381 187.367 309.479 185.48 308.702C183.905 308.053 182.219 307.716 180.609 307.179C178.813 306.58 177.17 305.848 175.488 304.936C172.197 303.152 169.152 300.828 166.165 298.588C164.852 297.603 163.823 296.304 162.67 295.151C161.964 294.445 161.169 293.852 160.453 293.165C159.998 292.729 159.586 292.222 159.091 291.829C158.107 291.047 157.121 289.932 155.827 289.747C154.511 289.559 153.006 288.873 151.657 289.162C150.553 289.399 148.776 290.231 147.95 291.019C147.651 291.305 147.364 291.617 147.069 291.912C146.532 292.45 145.743 292.649 145.174 293.14C143.542 294.547 143.433 296.924 142.784 298.832C142.51 299.635 142.552 300.8 142.552 301.66C142.552 302.335 142.603 303.006 142.726 303.671C142.841 304.291 142.654 304.974 142.842 305.573C142.95 305.919 142.99 306.222 143.015 306.581C143.036 306.892 143.361 307.247 143.478 307.539C143.827 308.412 144.453 309.664 145.122 310.334C146.504 311.715 147.547 313.615 149.376 314.529C151.413 315.548 153.661 314.998 155.737 314.472C157.932 313.915 160.113 313.68 162.22 312.788C164.036 312.02 165.566 310.725 167.187 309.614C169.13 308.283 171.22 307.131 171.813 304.757" stroke="black" stroke-width="3" stroke-linecap="round"/>
<path d="M151.573 304.409C152.353 305.235 152.69 306.326 153.328 307.243C154.015 308.231 155.203 308.517 156.315 308.573C157.357 308.625 158.645 309.322 159.605 309.73C160.219 309.99 160.926 309.98 161.52 310.218C162.03 310.422 162.5 310.69 163.023 310.886" stroke="black" stroke-width="3" stroke-linecap="round"/>
<path d="M151.226 304.641C149.855 305.327 148.967 307.373 148.682 308.798C148.529 309.561 148.288 310.829 149.132 311.259C149.874 311.637 150.28 311.909 150.789 312.57C151.025 312.874 151.262 312.913 151.342 313.315" stroke="black" stroke-width="3" stroke-linecap="round"/>
<path d="M119.306 276.537C120.887 276.05 121.41 273.85 122.319 272.656C123.178 271.528 124.469 270.316 125.988 270.291C129.324 270.238 132.658 270.256 135.992 270.182C138.43 270.128 140.865 270.308 142.617 272.2C143.646 273.311 144.448 274.569 145.032 275.984C145.822 277.895 146.285 279.954 147.23 281.799C148.107 283.512 148.148 285.57 148.361 287.434C148.475 288.439 148.279 289.59 148.682 290.531" stroke="black" stroke-width="3" stroke-linecap="round"/>
<path d="M118.265 277.925C117.956 277.993 117.783 278.625 117.68 278.863C117.326 279.678 116.785 280.51 116.556 281.369C116.383 282.017 116.116 282.596 116.067 283.27C115.997 284.26 115.438 285.214 115.38 286.252C115.322 287.296 115.373 288.355 115.373 289.4C115.373 290.398 115.522 291.292 115.9 292.221C116.278 293.148 116.379 294.196 117.108 294.926C118.29 296.108 119.659 297.311 121.13 298.138C125.007 300.319 129.527 300.593 133.904 300.593C134.588 300.593 135.289 300.296 135.954 300.13C136.337 300.034 136.7 300.042 137.091 299.989C137.838 299.887 138.385 299.57 139.057 299.282C139.644 299.031 140.304 299.013 140.895 298.8C142.021 298.395 143.133 298.35 144.171 297.702" stroke="black" stroke-width="3" stroke-linecap="round"/>
<path d="M118.265 283.013C119.282 282.335 119.997 283.909 120.321 284.568C120.607 285.152 120.562 285.796 120.751 286.406C120.862 286.763 121.035 287.102 121.156 287.46C122.14 290.357 125.306 291.777 127.703 293.198C129.887 294.491 132.191 295.967 134.848 295.967C135.515 295.967 134.967 297.021 134.925 297.412C134.86 298.036 134.914 298.717 135.035 299.321" stroke="black" stroke-width="3" stroke-linecap="round"/>
<path d="M94.9026 265.896C96.4989 264.838 97.5929 263.613 98.8413 262.202C99.7084 261.222 100.966 260.421 102.099 259.767C102.973 259.262 103.767 259.012 104.733 258.771C105.522 258.573 106.283 258.032 107.104 258.032C107.719 258.032 108.563 258.002 109.154 258.199C110.187 258.543 111.37 258.49 112.444 258.752C114.083 259.15 115.289 260.303 116.761 261.039C118.081 261.698 119.277 262.126 120.225 263.294C120.987 264.235 121.761 265.652 121.94 266.873C122.086 267.862 122.266 268.728 122.602 269.662C122.831 270.299 123.354 270.992 123.354 271.679" stroke="black" stroke-width="3" stroke-linecap="round"/>
<path d="M94.3242 266.128C94.3242 267.441 93.172 268.374 92.9492 269.655C92.7021 271.076 92.7012 272.76 93.0006 274.172C93.1935 275.081 93.4746 276.029 93.7717 276.909C93.9969 277.577 94.3375 278.666 94.8383 279.197C95.8527 280.273 96.905 281.307 97.9738 282.319C98.9907 283.283 100.194 283.592 101.495 283.99C102.479 284.291 103.497 284.088 104.502 284.228C105.576 284.377 106.71 284.285 107.792 284.285C109.163 284.285 110.238 283.687 111.557 283.502C112.283 283.399 112.937 283.32 113.523 282.872C113.776 282.678 114.008 282.319 114.333 282.319" stroke="black" stroke-width="3" stroke-linecap="round"/>
<path d="M95.2495 271.91C95.3598 271.322 95.6274 270.779 95.9177 270.266C96.1031 269.938 96.1592 269.433 96.4318 269.16C97.3254 268.267 97.8041 270.031 97.961 270.516C98.2775 271.494 98.3944 272.593 99.0661 273.414C99.3327 273.74 99.5345 274.267 99.8821 274.506C100.67 275.048 101.445 275.634 102.24 276.164C103.773 277.186 105.694 277.808 107.393 278.503C108.149 278.812 108.908 279.138 109.681 279.402C109.934 279.489 110.43 279.543 110.638 279.717C110.831 279.878 110.996 279.689 111.152 279.948C111.281 280.163 111.409 280.173 111.621 280.25C112.208 280.464 112.795 280.644 113.407 280.816C114.068 281.002 114.931 281.091 115.489 281.51" stroke="black" stroke-width="3" stroke-linecap="round"/>
<path d="M69.5741 246.004C69.9101 246.069 70.2949 246.045 70.5507 246.287C71.0725 246.78 71.6622 247.357 72.3241 247.649C72.7596 247.841 73.1034 248.15 73.4807 248.433C73.8023 248.674 73.9162 249.177 74.2067 249.467C74.717 249.977 75.348 250.108 75.9287 250.514C76.65 251.019 77.3722 251.44 78.2482 251.44" stroke="black" stroke-width="3" stroke-linecap="round"/>
<path d="M78.5952 251.44C80.7019 251.139 82.8339 250.819 84.9819 251.067C86.337 251.223 87.5748 251.8 88.8885 252.044C89.5193 252.16 90.1747 252.473 90.7968 252.654C91.5302 252.867 92.2492 253.133 92.9621 253.406C95.317 254.308 95.6062 257.086 96.7273 258.983C96.9277 259.322 97.0198 259.707 97.2156 260.049C97.3126 260.219 97.9837 260.118 98.1666 260.114C98.8247 260.099 99.4946 259.757 100.158 259.651C100.454 259.604 100.685 259.345 100.685 259.651" stroke="black" stroke-width="3" stroke-linecap="round"/>
<path d="M77.4386 252.365C76.8535 253.504 76.0334 254.59 75.9287 255.899C75.8201 257.256 75.8195 258.604 75.8195 259.972C75.8195 260.387 75.9007 260.753 75.9415 261.161C75.9951 261.697 75.9808 262.343 76.1664 262.844C76.3415 263.317 76.5524 263.785 76.719 264.251C76.9603 264.927 77.5093 265.348 77.7599 265.986C78.3009 267.363 80.5961 267.929 81.7757 268.383C82.6914 268.735 83.7756 268.83 84.7249 269.135C85.3673 269.341 86.0903 269.291 86.7553 269.424C87.5121 269.575 88.4763 269.557 89.2354 269.417C90.2756 269.226 91.0254 268.385 91.8955 267.862" stroke="black" stroke-width="3" stroke-linecap="round"/>
<path d="M76.629 259.651C78.4773 259.597 78.6313 255.763 80.7926 256.072C81.2281 256.134 81.6087 256.857 81.8078 257.197C82.0708 257.645 82.3428 258.06 82.6174 258.494C83.1731 259.374 84.3316 260.117 85.2517 260.551C86.1597 260.979 87.1321 261.478 87.9504 262.073C88.4149 262.411 88.8876 262.711 89.3896 262.992C89.7281 263.182 90.0054 263.183 90.2056 263.583C90.3631 263.898 90.3547 264.24 90.6233 264.509C90.9387 264.824 91.383 265.034 91.7284 265.318C92.2153 265.718 92.8221 265.983 93.2833 266.41C93.6262 266.728 94.5348 266.991 94.6712 267.4" stroke="black" stroke-width="3" stroke-linecap="round"/>
<path d="M247.314 212.006C248.425 212.006 249.186 212.82 250.225 213.087C251.015 213.29 251.741 213.697 252.553 213.877C253.45 214.076 254.29 214.587 255.173 214.854C255.636 214.994 255.928 215.561 256.4 215.561C257.265 215.561 258.153 215.896 258.957 216.164C259.904 216.48 260.887 216.542 261.837 216.788C264.205 217.402 266.517 217.433 268.948 217.433C270.418 217.433 271.88 217.327 273.346 217.235C275.124 217.124 276.793 216.198 278.523 216.123C280.553 216.034 282.579 215.117 284.563 214.709C285.659 214.483 287.361 214.061 288.337 213.503C289.219 212.999 290.598 212.623 291.57 212.37C292.708 212.073 293.95 211.708 295.032 211.216C296.312 210.634 297.879 209.847 299.253 209.563C300.051 209.398 302.137 209.025 302.518 208.263" stroke="black" stroke-width="3" stroke-linecap="round"/>
<path d="M196.788 135.469C198.899 135.345 201.238 135.075 203.255 135.947C204.168 136.342 205.548 136.152 206.519 136.322C207.816 136.549 209.004 136.71 210.262 137.06C213.938 138.081 216.924 140.736 220.45 142.019C221.202 142.292 222.332 142.819 222.987 143.287C223.796 143.865 224.875 144.241 225.606 144.826C227.157 146.066 229.528 146.619 231.387 147.342C233.454 148.146 235.59 148.621 237.77 148.984C238.931 149.178 240.125 149.422 241.242 149.795C242.62 150.254 243.845 151.001 245.338 151.001C245.755 151.001 246.007 151.25 246.388 151.365C246.98 151.542 247.565 151.515 248.166 151.604C249.347 151.779 250.724 152.124 251.898 152.124C253.303 152.124 254.675 152.498 256.109 152.498C257.83 152.498 259.461 152.84 261.162 153.018C267.421 153.673 273.758 153.434 280.062 153.434C284.732 153.434 289.466 153.247 294.097 153.247C294.781 153.247 295.245 153.023 295.875 152.883C296.139 152.824 297.121 152.6 297.278 152.404C297.651 151.938 299.027 152.181 299.336 151.562" stroke="black" stroke-width="3" stroke-linecap="round"/>
<path d="M105.343 160.165C106.789 160.165 108.198 160.278 109.637 160.432C111.814 160.666 114.15 160.499 116.285 161.008C116.931 161.161 117.405 161.059 118.051 161.014C119.116 160.941 119.849 160.405 120.846 160.165C124.878 159.195 128.908 158.385 132.871 157.155C135.255 156.416 137.629 155.685 139.961 154.801C140.805 154.481 141.644 154.182 142.496 153.891C143.657 153.495 144.746 152.845 145.913 152.487C149.912 151.26 153.45 149.03 157.109 147.07C158.618 146.262 160.072 145.137 161.744 144.689C162.829 144.397 163.873 143.805 164.914 143.391C165.994 142.962 167.129 142.701 168.185 142.201C169.868 141.403 171.758 141.152 173.542 140.662C175.655 140.082 177.808 139.969 179.956 139.579C183.716 138.895 187.405 137.977 191.085 136.984C192.455 136.614 193.863 136.292 195.252 136.014C196.034 135.858 196.856 135.725 197.626 135.539C198.014 135.446 198.557 135.463 198.884 135.245" stroke="black" stroke-width="3" stroke-linecap="round"/>
<path d="M176.208 142.03C174.415 142.03 172.783 142.663 171.235 143.508C170.605 143.851 169.932 144.13 169.269 144.401C168.356 144.774 167.538 145.267 166.634 145.654C164.363 146.627 162.286 147.926 160.158 149.175C158.664 150.051 157.131 150.788 155.673 151.719C154.524 152.453 153.456 153.293 152.28 153.987C151.371 154.525 150.622 155.316 149.749 155.909C148.355 156.854 146.635 158.258 146.6 160.072C146.571 161.589 146.511 163.134 146.806 164.608C147.178 166.469 148.058 168.069 148.772 169.826C149.499 171.615 149.828 173.494 150.327 175.339C150.538 176.121 150.417 177.025 150.417 177.832C150.417 178.882 150.429 179.868 150.16 180.89C149.941 181.72 149.855 182.587 149.723 183.447C149.573 184.425 149.288 185.366 149.119 186.326C148.764 188.339 147.138 190.248 145.906 191.787C144.879 193.071 143.966 194.498 143.246 195.977C142.883 196.723 142.527 197.452 142.257 198.238C142.101 198.69 141.807 199.033 141.717 199.51C141.651 199.859 141.63 200.209 141.537 200.551C141.211 201.758 140.951 203.237 141.254 204.484C141.573 205.792 142.243 207.103 142.964 208.236C143.345 208.835 143.674 209.444 144.03 210.061C144.225 210.398 144.404 210.697 144.628 211.018C144.862 211.356 145.046 211.367 145.322 211.596C145.56 211.795 145.97 211.794 146.189 212.001C146.363 212.166 146.818 212.49 147.018 212.579C147.769 212.914 148.544 213.267 149.376 213.505C150.61 213.857 151.898 214.021 153.128 214.366C154.709 214.808 156.382 215.115 157.992 215.413C159.596 215.71 161.667 215.816 163.255 215.419C164.976 214.989 166.686 213.955 167.996 212.753C169.798 211.101 171.826 209.777 173.721 208.249C176.086 206.342 178.58 204.759 180.738 202.601C182.265 201.074 183.774 199.293 184.818 197.403C185.434 196.286 186.129 194.883 186.379 193.631C186.666 192.195 187.596 191.053 188.172 189.744C188.905 188.078 189.909 186.539 190.768 184.944C192.024 182.612 193.656 180.411 195.336 178.352C196.303 177.167 197.514 176.231 198.529 175.082C199.44 174.05 200.567 173.074 201.646 172.222C202.765 171.338 203.963 170.56 205.057 169.646C206.095 168.779 207.205 167.908 208.302 167.121C209.422 166.317 210.43 165.33 211.663 164.698C212.193 164.426 213.063 163.967 213.333 163.426" stroke="black" stroke-width="3" stroke-linecap="round"/>
<path d="M197.972 176.99C198.556 177.12 199.498 178.754 199.834 179.191C200.458 180.003 201.141 180.837 201.866 181.561C203.223 182.918 204.705 184.137 206.098 185.455C206.816 186.134 207.775 186.76 208.637 187.223C209.918 187.91 210.993 188.846 212.361 189.386C214.071 190.06 215.663 190.916 217.402 191.568C219.157 192.226 220.803 193.164 222.612 193.674C224.567 194.226 226.657 195.65 228.02 197.144C228.977 198.194 230.145 199.006 231.151 200.013C232.357 201.219 233.457 202.522 234.744 203.643C237.089 205.685 239.094 208.255 240.989 210.696C242.324 212.417 243.724 214.152 245.531 215.417C246.442 216.055 247.136 216.918 247.995 217.618C249.281 218.666 250.337 219.5 251.851 220.233C252.354 220.476 252.632 220.865 253.007 221.258C253.479 221.75 254.126 222.011 254.691 222.377C255.991 223.218 257.062 224.377 258.377 225.208C259.78 226.093 260.991 227.219 262.243 228.292C263.6 229.455 265.132 230.334 266.71 231.161C267.72 231.69 268.718 232.301 269.757 232.769C271.018 233.336 271.828 234.399 272.87 235.261C274.246 236.399 276.042 237.209 277.535 238.195C279.209 239.301 280.978 240.465 282.857 241.148C284.03 241.575 287.861 241.794 287.861 243.349" stroke="black" stroke-width="3" stroke-linecap="round"/>
<path d="M151.356 180.546C152.047 180.941 152.781 181.006 153.5 181.285C153.915 181.447 154.623 181.336 154.949 181.611C155.272 181.883 156.238 181.954 156.679 182.017C157.414 182.122 157.477 182.578 157.477 183.215C157.477 185.203 157.681 187.399 157.145 189.329C156.977 189.934 156.959 190.467 156.945 191.089C156.933 191.624 156.741 192.141 156.612 192.656C156.446 193.321 156.459 193.949 156.383 194.623C156.288 195.473 156.026 196.261 155.88 197.063C155.708 198.012 155.189 198.788 154.949 199.71C154.711 200.622 154.267 201.496 153.67 202.231C153.431 202.524 152.858 202.751 152.539 202.963C151.92 203.372 151.261 203.711 150.631 204.101C149.246 204.961 148.094 205.462 146.498 205.698C145.369 205.866 144.248 205.831 143.105 205.831" stroke="black" stroke-width="3" stroke-linecap="round"/>
<path d="M175.177 168.702C176.718 169.353 177.816 169.971 179.044 171.097C179.54 171.552 180.086 171.86 180.626 172.243C181.153 172.616 181.542 173.257 182.053 173.685C183.928 175.252 185.483 177.128 186.563 179.348C187.112 180.476 187.124 181.872 187.391 183.074C187.552 183.797 187.687 184.518 187.687 185.27C187.687 185.795 188.012 187.902 187.554 188.132" stroke="black" stroke-width="3" stroke-linecap="round"/>
<path d="M181.166 165.108C182.095 167.149 182.924 168.816 184.286 170.55C184.771 171.168 186.3 171.174 186.992 171.363C187.805 171.585 188.702 171.773 189.543 171.563C190.292 171.375 190.884 170.875 191.679 170.831C192.645 170.777 193.326 170.126 194.193 169.848C194.922 169.613 195.699 169.453 196.441 169.234C197.482 168.927 198.351 168.237 199.191 167.57C199.752 167.125 200.062 166.44 200.596 166.04" stroke="black" stroke-width="3" stroke-linecap="round"/>
<path d="M198.999 169.101C199.328 171.403 200.951 169.914 202.193 169.5" stroke="black" stroke-width="3" stroke-linecap="round"/>
<path d="M182.364 173.226C182.652 173.016 183.706 172.96 184.094 172.96" stroke="black" stroke-width="3" stroke-linecap="round"/>
<path d="M187.305 173.41C186.821 173.742 185.141 174.259 185.723 174.181C186.208 174.117 186.561 173.699 186.936 173.429C187.752 172.841 186.303 173.77 186.14 173.875C186.095 173.904 185.354 174.31 185.582 174.409C186.072 174.624 186.932 174.297 187.412 174.196C187.785 174.117 188.157 174.034 188.528 173.943C188.573 173.932 189.009 173.758 188.896 173.875C188.357 174.438 187.8 175.054 187.431 175.749C187.313 175.971 187.181 176.379 187.538 176.379C188.093 176.379 188.337 176.12 188.683 175.7C189.062 175.24 189.454 174.738 189.736 174.21C189.866 173.966 189.74 173.819 189.595 174.079C189.185 174.815 188.994 175.853 188.838 176.671C188.684 177.478 188.282 178.956 188.634 179.757C188.891 180.339 189.538 178.911 189.576 178.83C189.982 177.973 190.532 177.194 190.915 176.326C191.057 176.005 190.94 176.12 190.867 176.341C190.407 177.72 190.211 179.225 189.983 180.655C189.956 180.826 189.343 183.869 190.493 183.358C190.79 183.226 190.765 182.194 190.779 181.95C190.828 181.134 190.829 180.293 190.794 179.476C190.777 179.096 190.543 179.11 190.43 179.446C190.019 180.664 189.953 182.047 189.857 183.319C189.857 183.324 189.772 183.854 189.867 183.498C190.072 182.729 190.425 182.001 190.726 181.266C191.224 180.05 191.594 178.724 192.196 177.554C192.462 177.038 191.817 178.65 191.629 179.199C191.291 180.185 191.149 181.212 190.838 182.203C190.773 182.408 190.71 182.925 190.881 182.426C190.959 182.2 191.06 181.341 190.779 181.999C190.446 182.779 190.097 183.556 189.77 184.338C189.76 184.361 189.607 184.878 189.45 184.653C189.237 184.349 189.613 183.407 189.683 183.086C189.94 181.902 190.374 180.752 190.707 179.587C191.125 178.123 191.519 176.65 191.973 175.205C192.135 174.689 192.551 174.31 192.876 173.885C193.213 173.444 193.572 173.031 193.943 172.619C194.081 172.466 194.579 171.399 194.681 171.866C194.834 172.566 194.339 173.217 193.807 173.613C193.703 173.691 193.367 173.943 193.201 173.832C192.558 173.403 193.942 172.203 192.885 172.59C192.329 172.793 191.716 172.97 191.187 173.235C190.619 173.519 192.019 173.105 192.143 173.07C193.158 172.78 194.439 172.925 195.283 172.226C195.639 171.931 196.006 171.677 196.379 171.405C196.717 171.16 196.757 171.445 197.107 171.604C197.422 171.748 197.746 171.75 198.083 171.75C198.256 171.75 197.847 172.018 197.767 172.119C197.167 172.884 196.596 173.667 195.981 174.424C195.551 174.953 194.972 175.398 194.594 175.962C194.047 176.777 193.878 177.8 193.283 178.568C193.249 178.613 192.789 179.355 193.021 179.097C193.52 178.543 193.842 177.661 194.176 177.001C194.909 175.55 195.71 174.222 196.952 173.157C197.256 172.897 197.518 172.742 197.879 172.58C198.129 172.467 199.252 172.087 198.747 171.75" stroke="black" stroke-width="3" stroke-linecap="round"/>
<path d="M199.104 176.564C200.195 177.239 200.038 178.418 200.859 179.195C201.49 179.794 202.325 180.219 202.982 180.811C203.828 181.572 204.959 182.237 205.899 182.885C206.668 183.416 207.36 183.907 208.19 184.34C209.351 184.946 210.396 185.817 211.664 186.213C212.282 186.406 212.931 186.723 213.571 186.826C214.14 186.917 214.648 186.862 215.214 187.021C217.747 187.73 220.208 188.093 222.837 188.093C225.284 188.093 226.74 186.691 228.581 185.21C230.414 183.736 230.518 181.332 231.867 179.516C232.797 178.264 233.568 176.921 234.519 175.68C235.549 174.337 235.766 173.182 236.1 171.579C236.433 169.977 236.833 168.393 237.13 166.783C237.32 165.752 236.973 164.185 237.575 163.281" stroke="black" stroke-width="3" stroke-linecap="round"/>
<path d="M230.182 186.338C231.292 186.005 231.625 185.779 232.194 184.89C232.734 184.046 233.258 183.137 233.969 182.426C234.877 181.518 235.933 180.585 236.545 179.446C237.223 178.183 237.983 176.964 238.578 175.659C239.129 174.45 239.917 173.173 240.332 171.927" stroke="black" stroke-width="3" stroke-linecap="round"/>
<path d="M240.583 182.078C239.746 184.095 238.578 185.885 237.826 187.953C237.571 188.655 237.187 189.284 237.046 190.028C236.916 190.717 236.698 192.804 236.698 192.103" stroke="black" stroke-width="3" stroke-linecap="round"/>
<path d="M231.811 187.717C233.126 187.717 234.405 187.03 235.292 186.032C236.598 184.562 237.95 183.207 239.079 181.576" stroke="black" stroke-width="3" stroke-linecap="round"/>
<path d="M237.2 187.09C235.544 188.01 234.476 190.256 233.566 191.824C233.399 192.11 233.424 192.321 233.566 192.604" stroke="black" stroke-width="3" stroke-linecap="round"/>
<path d="M236.322 190.348C236.322 191.604 236.322 192.859 236.322 194.115C236.322 194.63 236.088 195.023 236.072 195.514C236.048 196.243 236.072 196.977 236.072 197.707C236.072 198.328 236.244 199.163 236.385 199.809C236.505 200.36 236.576 200.944 236.67 201.501C236.745 201.942 236.945 201.966 237.074 202.323C237.38 203.164 238.026 204.147 238.077 205.01C238.093 205.284 238.124 205.698 238.383 205.859C238.814 206.129 238.29 206.639 238.954 206.639" stroke="black" stroke-width="3" stroke-linecap="round"/>
<path d="M214.393 188.469C215.182 188.469 215.869 188.882 216.593 189.088C217.318 189.295 217.99 189.095 218.723 189.095C219.511 189.095 220.119 189.531 220.839 189.75C221.286 189.885 221.851 190.044 222.287 190.251C222.965 190.572 221.222 190.474 221.069 190.474C220.718 190.474 220.153 190.519 219.844 190.279C219.745 190.202 219.392 190.098 219.517 190.098C219.934 190.098 220.383 190.28 220.77 190.411C221.385 190.62 221.985 190.857 222.601 191.045C223.345 191.271 223.577 192.274 224.32 192.353C224.554 192.378 225.579 192.664 225.699 192.855C225.955 193.265 226.958 193.344 227.356 193.669C227.828 194.055 228.352 194.119 228.811 194.539C229.372 195.054 229.946 195.582 230.391 196.196C230.92 196.927 231.632 197.401 232.159 198.118C232.456 198.521 232.815 198.866 233.064 199.301C233.171 199.488 233.438 199.611 233.628 199.684C234.018 199.834 233.951 199.865 234.129 200.185C234.223 200.355 234.317 200.613 234.317 200.805C234.317 201.105 234.317 199.853 234.317 199.628C234.317 198.565 234.192 197.512 234.192 196.454C234.192 195.514 234.192 194.574 234.192 193.634C234.192 193.328 234.18 192.409 234.192 192.715C234.243 193.995 234.317 195.262 234.317 196.544C234.317 197.489 234.333 198.428 234.185 199.364C234.105 199.874 233.816 200.35 233.816 200.868C233.816 201.115 233.725 201.594 233.886 201.801C233.934 201.863 233.941 200.274 233.941 199.99C233.941 197.235 233.904 194.793 233.19 192.144C233.091 191.778 233.231 188.919 232.995 188.852C232.571 188.731 232.563 193.906 232.563 194.915C232.563 195.628 232.129 193.043 232.117 192.896C232.016 191.609 231.936 187.734 231.936 189.026C231.936 190.574 232.008 192.135 231.839 193.676C231.832 193.737 231.834 194.418 231.721 194.087C231.318 192.91 231.144 191.602 230.962 190.376C230.831 189.499 230.683 186.844 230.683 187.731C230.683 189.302 230.683 190.873 230.683 192.444C230.683 194.149 229.948 189.088 229.242 187.536C228.985 186.969 228.87 188.864 228.859 188.97C228.771 189.869 228.719 190.782 228.685 191.685C228.675 191.973 228.908 192.677 228.65 192.548C228.462 192.454 228.45 191.26 228.421 191.086C228.295 190.332 228.198 189.596 228.177 188.831C228.138 187.383 227.184 190.704 227.133 190.877C227.106 190.969 226.686 192.344 226.659 192.298C226.4 191.844 226.203 191.317 226.047 190.822C225.877 190.283 225.757 189.732 225.615 189.186C225.539 188.894 225.503 188.812 225.42 189.193C225.376 189.395 224.943 191.486 224.821 190.724C224.757 190.318 224.825 189.925 224.418 189.722" stroke="black" stroke-width="3" stroke-linecap="round"/>
<path d="M239.33 181.702C240.058 181.702 241.031 181.182 241.335 180.574" stroke="black" stroke-width="3" stroke-linecap="round"/>
<path d="M239.455 180.574C239.841 180.418 241.182 180.031 241.335 179.571" stroke="black" stroke-width="3" stroke-linecap="round"/>
<path d="M74.2252 149.175C73.6914 152.319 72.0153 155.119 71.5523 158.244C71.192 160.676 71.1799 163.243 70.3961 165.595C69.986 166.825 69.6849 168.081 69.2612 169.307C68.684 170.978 67.7759 172.405 66.9914 173.974C65.6304 176.696 64.1831 179.557 63.0669 182.385C61.9451 185.227 60.3265 187.874 59.1424 190.69C58.3065 192.678 57.4377 194.64 56.4907 196.577C54.749 200.139 52.6927 203.638 51.1342 207.3C50.7759 208.143 50.2501 208.882 49.8932 209.719C49.1827 211.384 48.8937 213.159 48.6416 214.937C48.3707 216.849 48.0739 218.441 47.3052 220.198C46.725 221.524 46.4234 222.968 45.7354 224.25C44.7758 226.038 43.8043 227.849 42.914 229.67C41.0564 233.47 38.6644 237.246 36.2741 240.733C33.9021 244.194 31.5158 247.639 29.1252 251.085C23.764 258.814 20.3048 267.588 15.6122 275.714C13.8647 278.74 12.3079 282.016 10.3088 284.878C8.67152 287.223 6.78153 289.742 5.45086 292.261C4.38902 294.271 3.01913 296.024 1.82334 297.946C1.14099 299.043 0.0878121 300.314 -0.425293 301.34" stroke="black" stroke-width="3" stroke-linecap="round"/>
</g>
<defs>
<clipPath id="clip0_706_101">
<rect width="400" height="400" fill="white"/>
</clipPath>
</defs>
</svg>
