<svg width="400" height="400" viewBox="0 0 400 400" fill="none" xmlns="http://www.w3.org/2000/svg">
<path d="M200 34L329.904 109H70.0962L200 34Z" fill="black"/>
<rect x="275" y="141" width="25" height="113" fill="black"/>
<rect x="100" y="141" width="25" height="113" fill="black"/>
<rect x="187" y="141" width="25" height="113" fill="black"/>
<rect x="69" y="283" width="261" height="25" fill="black"/>
<rect x="25" y="315" width="350" height="25" fill="black"/>
<path d="M113 229L134.651 266.5H91.3494L113 229Z" fill="black"/>
<path d="M200 229L221.651 266.5H178.349L200 229Z" fill="black"/>
<path d="M287 229L308.651 266.5H265.349L287 229Z" fill="black"/>
<path d="M288 166L266.349 128.5H309.651L288 166Z" fill="black"/>
<path d="M200 166L178.349 128.5H221.651L200 166Z" fill="black"/>
<path d="M112 166L90.3494 128.5H133.651L112 166Z" fill="black"/>
</svg>
